<svg aria-hidden="true" style="position: absolute; width: 0; height: 0; overflow: hidden;" version="1.1" xmlns="http://www.w3.org/2000/svg" xmlns:xlink="http://www.w3.org/1999/xlink">
<defs>
<symbol id="icon-light" viewBox="0 0 23 24">
<path d="M11.44 4.94c-0.272 0-0.5-0.092-0.684-0.276s-0.276-0.412-0.276-0.684v-1.92c0-0.272 0.092-0.5 0.276-0.684s0.412-0.276 0.684-0.276c0.272 0 0.5 0.092 0.684 0.276s0.276 0.412 0.276 0.684v1.92c0 0.272-0.092 0.5-0.276 0.684s-0.412 0.276-0.684 0.276zM16.192 6.908c-0.176-0.176-0.264-0.396-0.264-0.66s0.088-0.492 0.264-0.684l1.344-1.368c0.192-0.192 0.42-0.288 0.684-0.288s0.492 0.096 0.684 0.288c0.176 0.176 0.264 0.4 0.264 0.672s-0.088 0.496-0.264 0.672l-1.368 1.368c-0.176 0.176-0.4 0.264-0.672 0.264s-0.496-0.088-0.672-0.264zM19.12 12.62c-0.272 0-0.5-0.092-0.684-0.276s-0.276-0.411-0.276-0.684c0-0.272 0.092-0.5 0.276-0.684s0.412-0.276 0.684-0.276h1.92c0.272 0 0.5 0.092 0.684 0.276s0.276 0.413 0.276 0.684c0 0.272-0.092 0.5-0.276 0.684s-0.411 0.276-0.684 0.276h-1.92zM11.44 22.22c-0.272 0-0.5-0.092-0.684-0.276s-0.276-0.411-0.276-0.684v-1.92c0-0.272 0.092-0.5 0.276-0.684s0.412-0.276 0.684-0.276c0.272 0 0.5 0.092 0.684 0.276s0.276 0.412 0.276 0.684v1.92c0 0.272-0.092 0.5-0.276 0.684s-0.412 0.276-0.684 0.276zM5.344 6.908l-1.368-1.344c-0.192-0.192-0.288-0.424-0.288-0.696s0.096-0.496 0.288-0.672c0.176-0.176 0.4-0.264 0.672-0.264s0.496 0.088 0.672 0.264l1.368 1.368c0.176 0.176 0.264 0.4 0.264 0.672s-0.088 0.496-0.264 0.672c-0.192 0.176-0.416 0.264-0.672 0.264s-0.48-0.088-0.672-0.264zM17.536 19.124l-1.344-1.368c-0.176-0.192-0.264-0.42-0.264-0.684s0.088-0.484 0.264-0.66c0.176-0.176 0.396-0.264 0.66-0.264s0.492 0.088 0.684 0.264l1.368 1.344c0.192 0.176 0.284 0.4 0.276 0.672s-0.099 0.504-0.276 0.696c-0.192 0.192-0.424 0.288-0.696 0.288s-0.496-0.096-0.672-0.288zM1.84 12.62c-0.272 0-0.5-0.092-0.684-0.276s-0.276-0.411-0.276-0.684c0-0.272 0.092-0.5 0.276-0.684s0.412-0.276 0.684-0.276h1.92c0.272 0 0.5 0.092 0.684 0.276s0.276 0.413 0.276 0.684c0 0.272-0.092 0.5-0.276 0.684s-0.412 0.276-0.684 0.276h-1.92zM3.976 19.124c-0.176-0.176-0.264-0.4-0.264-0.672s0.088-0.496 0.264-0.672l1.368-1.368c0.176-0.176 0.396-0.264 0.66-0.264s0.492 0.088 0.684 0.264c0.192 0.192 0.288 0.42 0.288 0.684s-0.096 0.492-0.288 0.684l-1.344 1.344c-0.192 0.192-0.424 0.288-0.696 0.288s-0.496-0.096-0.672-0.288zM11.44 17.42c-1.6 0-2.96-0.56-4.080-1.68s-1.68-2.48-1.68-4.080c0-1.6 0.56-2.96 1.68-4.080s2.48-1.68 4.080-1.68c1.6 0 2.96 0.56 4.080 1.68s1.68 2.48 1.68 4.080c0 1.6-0.56 2.96-1.68 4.080s-2.48 1.68-4.080 1.68zM11.44 15.5c1.056 0 1.96-0.376 2.712-1.128s1.128-1.656 1.128-2.712-0.376-1.96-1.128-2.712c-0.752-0.752-1.656-1.128-2.712-1.128s-1.96 0.376-2.712 1.128c-0.752 0.752-1.128 1.656-1.128 2.712s0.376 1.96 1.128 2.712c0.752 0.752 1.656 1.128 2.712 1.128zM11.44 15.5c-1.056 0-1.96-0.376-2.712-1.128s-1.128-1.656-1.128-2.712 0.376-1.96 1.128-2.712c0.752-0.752 1.656-1.128 2.712-1.128s1.96 0.376 2.712 1.128c0.752 0.752 1.128 1.656 1.128 2.712s-0.376 1.96-1.128 2.712c-0.752 0.752-1.656 1.128-2.712 1.128z"></path>
</symbol>
<symbol id="icon-dark" viewBox="0 0 23 24">
<path d="M9.083 0.417c0.146 0.178 0.236 0.396 0.258 0.625s-0.027 0.46-0.138 0.662c-0.867 1.592-1.32 3.377-1.317 5.19 0 6.032 4.917 10.915 10.977 10.915 0.79 0 1.56-0.082 2.299-0.24 0.227-0.049 0.463-0.030 0.679 0.054s0.402 0.23 0.536 0.42c0.141 0.197 0.213 0.435 0.204 0.678s-0.097 0.475-0.251 0.662c-1.176 1.445-2.661 2.61-4.344 3.408s-3.524 1.212-5.388 1.209c-6.915 0-12.516-5.571-12.516-12.435 0-5.166 3.171-9.597 7.686-11.475 0.225-0.095 0.475-0.115 0.712-0.056s0.448 0.193 0.602 0.383z"></path>
</symbol>
<symbol id="icon-bars" viewBox="0 0 24 28">
<path d="M24 21v2c0 0.547-0.453 1-1 1h-22c-0.547 0-1-0.453-1-1v-2c0-0.547 0.453-1 1-1h22c0.547 0 1 0.453 1 1zM24 13v2c0 0.547-0.453 1-1 1h-22c-0.547 0-1-0.453-1-1v-2c0-0.547 0.453-1 1-1h22c0.547 0 1 0.453 1 1zM24 5v2c0 0.547-0.453 1-1 1h-22c-0.547 0-1-0.453-1-1v-2c0-0.547 0.453-1 1-1h22c0.547 0 1 0.453 1 1z"></path>
</symbol>
</defs>
</svg>
